<svg width="61" height="53" viewBox="0 0 61 53" fill="none" xmlns="http://www.w3.org/2000/svg">
<path fill-rule="evenodd" clip-rule="evenodd" d="M12 24C18.6274 24 24 18.6274 24 12C24 5.37258 18.6274 0 12 0C5.37258 0 0 5.37258 0 12C0 18.6274 5.37258 24 12 24ZM19.5943 9.02591C20.1609 8.42154 20.1303 7.47229 19.5259 6.90569C18.9215 6.3391 17.9723 6.36972 17.4057 6.97409L10.911 13.9018L7.00345 10.3851C6.38768 9.83087 5.43925 9.88079 4.88506 10.4966C4.33087 11.1123 4.38079 12.0608 4.99655 12.6149L9.99655 17.1149C10.6035 17.6612 11.5358 17.6216 12.0943 17.0259L19.5943 9.02591Z" fill="#12110F"/>
<path fill-rule="evenodd" clip-rule="evenodd" d="M12 53C18.6274 53 24 47.6274 24 41C24 34.3726 18.6274 29 12 29C5.37258 29 0 34.3726 0 41C0 47.6274 5.37258 53 12 53ZM12 46C14.7614 46 17 43.7614 17 41C17 38.2386 14.7614 36 12 36C9.23858 36 7 38.2386 7 41C7 43.7614 9.23858 46 12 46Z" fill="#12110F"/>
<path d="M31 13L57 13" stroke="#12110F" stroke-width="8" stroke-linecap="round" stroke-linejoin="round"/>
<path d="M31 41L57 41" stroke="#12110F" stroke-width="8" stroke-linecap="round" stroke-linejoin="round"/>
</svg>
