<?xml version="1.0" encoding="UTF-8"?>
<!DOCTYPE svg PUBLIC "-//W3C//DTD SVG 1.1//EN" "http://www.w3.org/Graphics/SVG/1.1/DTD/svg11.dtd">
<svg xmlns="http://www.w3.org/2000/svg" version="1.1" width="263px" height="79px" style="shape-rendering:geometricPrecision; text-rendering:geometricPrecision; image-rendering:optimizeQuality; fill-rule:evenodd; clip-rule:evenodd" xmlns:xlink="http://www.w3.org/1999/xlink">
<g><path style="opacity:0.967" fill="#723b72" d="M 47.5,-0.5 C 51.5,-0.5 55.5,-0.5 59.5,-0.5C 74.7569,25.6797 89.7569,52.0131 104.5,78.5C 94.8333,78.5 85.1667,78.5 75.5,78.5C 68.6024,65.7074 61.4357,53.0408 54,40.5C 46.5563,53.0591 39.3896,65.7257 32.5,78.5C 22.8333,78.5 13.1667,78.5 3.5,78.5C 18.1594,52.2156 32.8261,25.8822 47.5,-0.5 Z"/></g>
<g><path style="opacity:0.966" fill="#723b72" d="M 66.5,-0.5 C 76.1667,-0.5 85.8333,-0.5 95.5,-0.5C 102.443,12.2808 109.61,24.9474 117,37.5C 123.925,24.6438 131.092,11.9771 138.5,-0.5C 148.167,-0.5 157.833,-0.5 167.5,-0.5C 152.229,25.7118 137.229,52.0451 122.5,78.5C 118.833,78.5 115.167,78.5 111.5,78.5C 96.2669,52.3751 81.2669,26.0417 66.5,-0.5 Z"/></g>
<g><path style="opacity:0.968" fill="#723b72" d="M 174.5,-0.5 C 178.5,-0.5 182.5,-0.5 186.5,-0.5C 189.257,4.01229 191.757,8.67895 194,13.5C 196.929,8.86493 199.762,4.19826 202.5,-0.5C 206.5,-0.5 210.5,-0.5 214.5,-0.5C 214.351,0.551975 214.517,1.55198 215,2.5C 229.788,27.7332 244.288,53.0665 258.5,78.5C 248.833,78.5 239.167,78.5 229.5,78.5C 222.557,65.7192 215.39,53.0526 208,40.5C 203.75,48.0037 199.25,55.337 194.5,62.5C 189.864,55.5208 185.197,48.5208 180.5,41.5C 172.709,53.4191 165.709,65.7524 159.5,78.5C 149.5,78.5 139.5,78.5 129.5,78.5C 144.765,52.3019 159.765,25.9686 174.5,-0.5 Z"/></g>
</svg>
