<svg width="54" height="65" viewBox="0 0 54 65" fill="none" xmlns="http://www.w3.org/2000/svg">
<path d="M43.875 0H3.375C2.47989 0 1.62145 0.34241 0.988515 0.951903C0.35558 1.5614 0 2.38805 0 3.25V55.25C0 56.112 0.35558 56.9386 0.988515 57.5481C1.62145 58.1576 2.47989 58.5 3.375 58.5H6.75V61.75C6.75 62.612 7.10558 63.4386 7.73852 64.0481C8.37145 64.6576 9.22989 65 10.125 65C11.0201 65 11.8785 64.6576 12.5115 64.0481C13.1444 63.4386 13.5 62.612 13.5 61.75V58.5H43.875C46.5603 58.5 49.1357 57.4728 51.0345 55.6443C52.9333 53.8158 54 51.3359 54 48.75V9.75C54 7.16414 52.9333 4.68419 51.0345 2.85571C49.1357 1.02723 46.5603 0 43.875 0ZM33.75 52H6.75V6.5H33.75V52ZM47.25 48.75C47.25 49.612 46.8944 50.4386 46.2615 51.0481C45.6286 51.6576 44.7701 52 43.875 52H40.5V6.5H43.875C44.7701 6.5 45.6286 6.84241 46.2615 7.4519C46.8944 8.0614 47.25 8.88805 47.25 9.75V48.75Z" fill="#12110F"/>
</svg>
