<svg width="48" height="49" viewBox="0 0 48 49" fill="none" xmlns="http://www.w3.org/2000/svg">
<g clip-path="url(#clip0_210_266)">
<path d="M47.4798 24.7614C47.4798 22.7698 47.3181 21.3164 46.9684 19.8092H24.2256V28.7986H37.5751C37.3061 31.0325 35.8527 34.3969 32.6229 36.6576L32.5776 36.9585L39.7684 42.5292L40.2666 42.5789C44.842 38.3533 47.4798 32.136 47.4798 24.7614Z" fill="#12110F"/>
<path d="M24.2255 48.4462C30.7657 48.4462 36.2562 46.2929 40.2666 42.5788L32.6228 36.6575C30.5774 38.084 27.832 39.0798 24.2255 39.0798C17.8199 39.0798 12.3832 34.8544 10.4452 29.0139L10.1611 29.038L2.68396 34.8247L2.58618 35.0965C6.56949 43.0093 14.7515 48.4462 24.2255 48.4462Z" fill="#12110F"/>
<path d="M10.4454 29.0138C9.93406 27.5066 9.63811 25.8916 9.63811 24.223C9.63811 22.5542 9.93406 20.9394 10.4185 19.4322L10.405 19.1112L2.83412 13.2316L2.58642 13.3494C0.944705 16.633 0.00268555 20.3204 0.00268555 24.223C0.00268555 28.1256 0.944705 31.8127 2.58642 35.0964L10.4454 29.0138Z" fill="#12110F"/>
<path d="M24.2255 9.36626C28.774 9.36626 31.8422 11.331 33.5917 12.9729L40.428 6.29807C36.2295 2.39547 30.7657 6.10352e-05 24.2255 6.10352e-05C14.7515 6.10352e-05 6.56949 5.43676 2.58618 13.3496L10.4183 19.4323C12.3832 13.5919 17.8199 9.36626 24.2255 9.36626Z" fill="#12110F"/>
</g>
<defs>
<clipPath id="clip0_210_266">
<rect width="47.5048" height="48.6132" fill="white"/>
</clipPath>
</defs>
</svg>
