<svg width="53" height="52" viewBox="0 0 53 52" fill="none" xmlns="http://www.w3.org/2000/svg">
<path d="M26.7149 27.9877C27.904 27.9877 28.8679 27.0238 28.8679 25.8348C28.8679 24.6458 27.904 23.6819 26.7149 23.6819C25.5259 23.6819 24.562 24.6458 24.562 25.8348C24.562 27.0238 25.5259 27.9877 26.7149 27.9877Z" stroke="black" stroke-width="4.30585" stroke-linecap="round" stroke-linejoin="round"/>
<path d="M41.7852 27.9877C42.9743 27.9877 43.9382 27.0238 43.9382 25.8348C43.9382 24.6458 42.9743 23.6819 41.7852 23.6819C40.5962 23.6819 39.6323 24.6458 39.6323 25.8348C39.6323 27.0238 40.5962 27.9877 41.7852 27.9877Z" stroke="black" stroke-width="4.30585" stroke-linecap="round" stroke-linejoin="round"/>
<path d="M11.6441 27.9877C12.8332 27.9877 13.7971 27.0238 13.7971 25.8348C13.7971 24.6458 12.8332 23.6819 11.6441 23.6819C10.4551 23.6819 9.49121 24.6458 9.49121 25.8348C9.49121 27.0238 10.4551 27.9877 11.6441 27.9877Z" stroke="black" stroke-width="4.30585" stroke-linecap="round" stroke-linejoin="round"/>
</svg>
